<?xml version="1.0" encoding="UTF-8"?><svg id="Layer_1" xmlns="http://www.w3.org/2000/svg" viewBox="0 0 152.76 366.7"><defs><style>.cls-1,.cls-2,.cls-3{stroke-width:0px;}.cls-2{fill:#cad81d;}.cls-3{fill:#ff4800;}</style></defs><path class="cls-2" d="m152.76,366.29l-58.01-59.53h-18.14l34.22,35.12c-10.15,7.4-22.59,11.84-36.09,11.84-31.84,0-58.13-24.24-61.38-55.24h135.78c.19-2.14.33-4.3.33-6.49,0-41.27-33.46-74.73-74.73-74.73S0,250.71,0,291.98s33.46,74.73,74.73,74.73c17.06,0,32.75-5.75,45.3-15.38l14.58,14.96h18.14Zm-78.03-136.04c31.84,0,58.12,24.24,61.38,55.23H13.34c3.26-30.99,29.54-55.23,61.38-55.23Z"/><path class="cls-3" d="m120.03,351.32l14.58,14.96h18.14l-58.01-59.53h-18.14l34.22,35.12"/><path class="cls-1" d="m23.96,15.74v2.41H5.38v-2.41h18.58Zm-4.82-8.26c.04-1.14.04-2.21.04-3.26v-.04H7.46V1.83h14.63v2.39c0,2.99,0,5.83-.96,10.29l-2.9-.29c.4-1.67.63-3.17.76-4.56l-11.75.6-.36-2.39,12.26-.4Z"/><path class="cls-1" d="m29.33,13.38c1.94-.04,3.77-.16,5.85-.49l.25,2.37c-2.66.47-4.93.54-7.5.54h-1.45V7.59h4.4v-3.22h-4.42v-2.34h7.28v7.88h-4.4v3.46ZM36.59.38h2.72v19.25h-2.72v-10.2h-2.03v-2.41h2.03V.38Zm6.97-.38v20.57h-2.79V0h2.79Z"/><path class="cls-1" d="m52.36,11.77c-3.15,0-5.6-2.21-5.6-5.2s2.46-5.22,5.6-5.22,5.58,2.19,5.58,5.22-2.43,5.2-5.58,5.2Zm0-2.55c1.54,0,2.7-1,2.7-2.66s-1.16-2.68-2.7-2.68-2.72.98-2.72,2.68,1.21,2.66,2.72,2.66Zm11.7,8.66v2.34h-14.2v-6.88h2.95v4.53h11.25Zm-.51-3.08h-2.97V.04h2.97v14.76Z"/><path class="cls-1" d="m77.88,11.63c-2.26-.67-3.82-2.03-4.71-3.73-.92,2.03-2.55,3.66-4.96,4.44l-1.47-2.3c3.33-1.12,4.8-3.73,4.85-6.3h-4.09V1.38h11.12v2.37h-4.02c.04,2.34,1.45,4.64,4.69,5.6l-1.41,2.28Zm5.56,4.98c0,2.5-2.68,3.97-6.94,3.97s-6.97-1.47-6.97-3.97,2.68-4.02,6.97-4.02,6.94,1.5,6.94,4.02Zm-2.93,0c0-1.18-1.41-1.74-4.02-1.74s-4.04.56-4.04,1.74,1.41,1.72,4.04,1.72,4.02-.56,4.02-1.72Zm5.43-11.86v2.41h-2.72v5.07h-2.95V.02h2.95v4.73h2.72Z"/><path class="cls-1" d="m91.51,1.65v4.98h4.29V1.65h2.93v14.18h-10.14V1.65h2.92Zm0,11.84h4.29v-4.56h-4.29v4.56ZM104.61,0v20.63h-2.95V0h2.95Z"/><path class="cls-1" d="m126.73,14.6h-7.86v6.01h-2.95v-6.01h-7.82v-2.39h18.62v2.39Zm-1.94-3.86h-14.36V.83h14.16v2.32h-11.23v1.5h10.78v2.23h-10.78v1.54h11.43v2.32Z"/><path class="cls-1" d="m136.23,5.56c0,3.13,1.63,6.77,5,8.33l-1.63,2.32c-2.28-1.05-3.89-3.1-4.8-5.54-.92,2.68-2.57,4.93-4.91,6.05l-1.65-2.34c3.37-1.56,5.05-5.43,5.05-8.82v-1.14h-4.26V1.99h11.3v2.43h-4.09v1.14Zm11.54,4.73h-2.99v10.29h-2.95V.02h2.95v7.84h2.99v2.43Z"/><path class="cls-1" d="m23,26.81v20.57h-2.79v-10.18h-1.65v9.27h-2.75v-6.07l-1.7,2.28c-1.74-.98-2.88-2.63-3.55-4.64-.71,2.26-1.92,4.13-3.75,5.25l-1.83-2.17c3.08-1.83,4.18-5.54,4.18-9.02v-3.46h2.86v3.24c0,3.55.96,6.9,3.8,8.49v-13.17h2.75v7.66h1.65v-8.02h2.79Z"/><path class="cls-1" d="m44.54,42.73v2.41h-18.62v-2.41h7.82v-3.06h-5.67v-6.97h11.48v-2.21h-11.5v-2.35h14.4v6.86h-11.45v2.3h11.92v2.37h-6.23v3.06h7.86Z"/><path class="cls-1" d="m65.09,36.81v2.34h-7.64v3.53h-3.01v-3.53h-7.97v-2.34h18.62Zm-16.72-5.34c0-2.59,2.97-4.26,7.39-4.26s7.39,1.67,7.39,4.26-2.95,4.27-7.39,4.27-7.39-1.65-7.39-4.27Zm3.26,13.22h11.43v2.34h-14.42v-6.16h2.99v3.82Zm-.07-13.22c0,1.27,1.63,1.92,4.2,1.92s4.22-.65,4.22-1.92-1.61-1.92-4.22-1.92-4.2.65-4.2,1.92Z"/><path class="cls-1" d="m23.98,61.97v2.34H5.36v-2.34h13.04c.42-2.05.49-3.64.49-5.07H7.66v-2.34h14.13v1.65c0,1.65,0,3.39-.47,5.76h2.66Zm-16.43,4.49h14.16v7.5H7.55v-7.5Zm2.9,5.2h8.37v-2.9h-8.37v2.9Z"/><path class="cls-1" d="m40.41,65.19v2.5c1.23.65,1.9,1.61,1.9,2.79,0,2.39-2.7,3.75-7.15,3.75s-7.12-1.36-7.12-3.75c0-1.23.71-2.21,2.01-2.84v-2.46h-4.13v-2.32h18.58v2.32h-4.09Zm-12.64-7.23c0-2.46,2.9-3.95,7.44-3.95s7.46,1.5,7.46,3.95-2.9,3.93-7.46,3.93-7.44-1.47-7.44-3.93Zm3.04,0c0,1.14,1.61,1.72,4.4,1.72s4.42-.58,4.42-1.72-1.61-1.72-4.42-1.72-4.4.56-4.4,1.72Zm8.51,12.53c0-1.05-1.41-1.54-4.15-1.54s-4.15.49-4.15,1.54,1.41,1.52,4.15,1.52,4.15-.47,4.15-1.52Zm-1.85-5.29h-4.49v1.65c.67-.09,1.41-.13,2.19-.13.83,0,1.61.04,2.3.13v-1.65Z"/><path class="cls-1" d="m56.32,66.77c.8-.07,1.61-.11,2.37-.22l.18,2.14c-4.18.74-8.84.83-12.35.83l-.31-2.41h2.3v-9.2h-1.76v-2.37h11.34v2.37h-1.76v8.86Zm-4.96.27c.69-.02,1.41-.04,2.12-.07v-9.07h-2.12v9.13Zm14.2-3.19h-2.99v10.38h-2.95v-20.57h2.95v7.75h2.99v2.43Z"/><path class="cls-1" d="m85.65,69.45v2.39h-18.62v-2.39h18.62Zm-1.99-2.88h-14.45v-11.43h14.29v2.37h-11.3v2.17h10.83v2.28h-10.83v2.3h11.45v2.32Z"/><path class="cls-1" d="m91.55,66.97c2.57-.04,5.23-.27,7.97-.8l.34,2.41c-3.33.67-6.45.85-9.49.85h-1.74v-13.6h2.92v11.14Zm13.29-13.35v20.65h-2.95v-11.9h-5.54v-2.39h5.54v-6.36h2.95Z"/><path class="cls-3" d="m18.64,120.15c0,5.11-2.56,8.32-6.08,8.32s-6.05-3.21-6.05-8.32,2.56-8.29,6.05-8.29,6.08,3.23,6.08,8.29Zm-9.54,0c0,3.7,1.43,5.92,3.47,5.92s3.49-2.22,3.49-5.92-1.43-5.87-3.49-5.87-3.47,2.22-3.47,5.87Zm16.01-10.04v23.63h-2.71v-23.63h2.71Z"/><path class="cls-3" d="m51.02,124.79h-5.35v8.92h-2.69v-8.92h-5.4v8.92h-2.69v-8.92h-5.19v-2.22h15.31c.31-1.46.52-2.74.65-3.94l-13.74.68-.34-2.27,14.21-.5c.05-1.04.05-1.98.05-2.92h-13.54v-2.19h16.14v2.17c0,2.43,0,5.14-.81,8.97h3.36v2.22Z"/><path class="cls-2" d="m66.52,110.58h2.5v21.98h-2.5v-11.29h-2.5c-.23,4.59-2.16,7.41-5.03,7.41-3.05,0-5.06-3.21-5.06-8.37s2.01-8.35,5.06-8.35c2.82,0,4.72,2.69,5.01,7.09h2.53v-8.48Zm-4.93,9.73c0-3.73-.99-5.82-2.61-5.82s-2.61,2.09-2.61,5.82.99,5.84,2.61,5.84,2.61-2.11,2.61-5.84Zm12.21-10.17v23.52h-2.56v-23.52h2.56Z"/><path class="cls-2" d="m99.03,128.57v2.22h-21.39v-2.22h21.39Zm-16.14-14.06h-3.47v-2.16h17.71v2.16h-3.47v7.69h3.42v2.19h-17.58v-2.19h3.39v-7.69Zm8.11,0h-5.42v7.69h5.42v-7.69Z"/><path class="cls-2" d="m112.45,118.9c-.44,2.76-2.56,4.64-5.29,4.64-3.1,0-5.35-2.4-5.35-5.79s2.24-5.84,5.35-5.84c2.79,0,4.9,1.93,5.32,4.77h2.03v-6.1h2.5v16.46h-2.5v-8.14h-2.06Zm-5.29,2.35c1.72,0,2.97-1.41,2.97-3.49s-1.25-3.55-2.97-3.55-2.95,1.38-2.95,3.55,1.25,3.49,2.95,3.49Zm15.07,9.81v2.19h-16.22v-7.8h2.71v5.61h13.51Zm-.65-3.34h-2.56v-17.58h2.56v17.58Z"/></svg>