<?xml version="1.0" encoding="UTF-8"?><svg id="Layer_1" xmlns="http://www.w3.org/2000/svg" viewBox="0 0 144.01 329.63"><defs><style>.cls-1,.cls-2,.cls-3,.cls-4{stroke-width:0px;}.cls-2{fill:#1d1d1b;}.cls-3{fill:#cad81d;}.cls-4{fill:#ff4800;}</style></defs><path class="cls-3" d="m107.91,329.43l-27.74-28.46h-8.67l16.36,16.79c-4.85,3.54-10.8,5.66-17.26,5.66-15.22,0-27.79-11.59-29.35-26.41h64.92c.09-1.03.16-2.06.16-3.1,0-19.73-16-35.73-35.73-35.73s-35.73,16-35.73,35.73,16,35.73,35.73,35.73c8.16,0,15.66-2.75,21.66-7.35l6.97,7.15h8.67Zm-37.31-65.04c15.22,0,27.79,11.59,29.35,26.41h-58.69c1.56-14.82,14.12-26.41,29.35-26.41Z"/><path class="cls-4" d="m92.27,322.28l6.97,7.15h8.67l-27.74-28.46h-8.67l16.36,16.79"/><path class="cls-1" d="m18.98,78.67v2.41H.4v-2.41h18.58Zm-4.82-8.26c.04-1.14.04-2.21.04-3.26v-.04H2.48v-2.34h14.63v2.39c0,2.99,0,5.83-.96,10.29l-2.9-.29c.4-1.67.63-3.17.76-4.56l-11.75.6-.36-2.39,12.26-.4Z"/><path class="cls-1" d="m24.35,76.3c1.94-.04,3.77-.16,5.85-.49l.25,2.37c-2.66.47-4.93.54-7.5.54h-1.45v-8.19h4.4v-3.22h-4.42v-2.34h7.28v7.88h-4.4v3.46Zm7.26-13h2.72v19.25h-2.72v-10.2h-2.03v-2.41h2.03v-6.63Zm6.97-.38v20.57h-2.79v-20.57h2.79Z"/><path class="cls-1" d="m47.38,74.7c-3.15,0-5.6-2.21-5.6-5.2s2.46-5.22,5.6-5.22,5.58,2.19,5.58,5.22-2.43,5.2-5.58,5.2Zm0-2.55c1.54,0,2.7-1,2.7-2.66s-1.16-2.68-2.7-2.68-2.72.98-2.72,2.68,1.21,2.66,2.72,2.66Zm11.7,8.66v2.34h-14.2v-6.88h2.95v4.53h11.25Zm-.51-3.08h-2.97v-14.76h2.97v14.76Z"/><path class="cls-1" d="m72.89,74.56c-2.26-.67-3.82-2.03-4.71-3.73-.92,2.03-2.55,3.66-4.96,4.44l-1.47-2.3c3.33-1.12,4.8-3.73,4.85-6.3h-4.09v-2.37h11.12v2.37h-4.02c.04,2.34,1.45,4.64,4.69,5.6l-1.41,2.28Zm5.56,4.98c0,2.5-2.68,3.97-6.94,3.97s-6.97-1.47-6.97-3.97,2.68-4.02,6.97-4.02,6.94,1.5,6.94,4.02Zm-2.93,0c0-1.18-1.41-1.74-4.02-1.74s-4.04.56-4.04,1.74,1.41,1.72,4.04,1.72,4.02-.56,4.02-1.72Zm5.43-11.86v2.41h-2.72v5.07h-2.95v-12.21h2.95v4.73h2.72Z"/><path class="cls-1" d="m86.53,64.58v4.98h4.29v-4.98h2.93v14.18h-10.14v-14.18h2.92Zm0,11.84h4.29v-4.56h-4.29v4.56Zm13.11-13.49v20.63h-2.95v-20.63h2.95Z"/><path class="cls-1" d="m121.75,77.53h-7.86v6.01h-2.95v-6.01h-7.82v-2.39h18.62v2.39Zm-1.94-3.86h-14.36v-9.91h14.16v2.32h-11.23v1.5h10.78v2.23h-10.78v1.54h11.43v2.32Z"/><path class="cls-1" d="m131.25,68.49c0,3.13,1.63,6.77,5,8.33l-1.63,2.32c-2.28-1.05-3.89-3.1-4.8-5.54-.92,2.68-2.57,4.93-4.91,6.05l-1.65-2.34c3.37-1.56,5.05-5.43,5.05-8.82v-1.14h-4.26v-2.43h11.3v2.43h-4.09v1.14Zm11.54,4.73h-2.99v10.29h-2.95v-20.57h2.95v7.84h2.99v2.43Z"/><path class="cls-1" d="m18.02,89.74v20.57h-2.79v-10.18h-1.65v9.27h-2.75v-6.07l-1.7,2.28c-1.74-.98-2.88-2.63-3.55-4.64-.71,2.26-1.92,4.13-3.75,5.25l-1.83-2.17c3.08-1.83,4.18-5.54,4.18-9.02v-3.46h2.86v3.24c0,3.55.96,6.9,3.8,8.49v-13.17h2.75v7.66h1.65v-8.02h2.79Z"/><path class="cls-1" d="m39.56,105.66v2.41h-18.62v-2.41h7.82v-3.06h-5.67v-6.97h11.48v-2.21h-11.5v-2.35h14.4v6.86h-11.45v2.3h11.92v2.37h-6.23v3.06h7.86Z"/><path class="cls-1" d="m60.11,99.74v2.34h-7.64v3.53h-3.01v-3.53h-7.97v-2.34h18.62Zm-16.72-5.34c0-2.59,2.97-4.26,7.39-4.26s7.39,1.67,7.39,4.26-2.95,4.27-7.39,4.27-7.39-1.65-7.39-4.27Zm3.26,13.22h11.43v2.34h-14.42v-6.16h2.99v3.82Zm-.07-13.22c0,1.27,1.63,1.92,4.2,1.92s4.22-.65,4.22-1.92-1.61-1.92-4.22-1.92-4.2.65-4.2,1.92Z"/><path class="cls-1" d="m19,124.9v2.34H.38v-2.34h13.04c.42-2.05.49-3.64.49-5.07H2.68v-2.34h14.13v1.65c0,1.65,0,3.39-.47,5.76h2.66Zm-16.43,4.49h14.16v7.5H2.57v-7.5Zm2.9,5.2h8.37v-2.9H5.47v2.9Z"/><path class="cls-1" d="m35.42,128.11v2.5c1.23.65,1.9,1.61,1.9,2.79,0,2.39-2.7,3.75-7.15,3.75s-7.12-1.36-7.12-3.75c0-1.23.71-2.21,2.01-2.84v-2.46h-4.13v-2.32h18.58v2.32h-4.09Zm-12.64-7.23c0-2.46,2.9-3.95,7.44-3.95s7.46,1.5,7.46,3.95-2.9,3.93-7.46,3.93-7.44-1.47-7.44-3.93Zm3.04,0c0,1.14,1.61,1.72,4.4,1.72s4.42-.58,4.42-1.72-1.61-1.72-4.42-1.72-4.4.56-4.4,1.72Zm8.51,12.53c0-1.05-1.41-1.54-4.15-1.54s-4.15.49-4.15,1.54,1.41,1.52,4.15,1.52,4.15-.47,4.15-1.52Zm-1.85-5.29h-4.49v1.65c.67-.09,1.41-.13,2.19-.13.83,0,1.61.04,2.3.13v-1.65Z"/><path class="cls-1" d="m51.33,129.7c.8-.07,1.61-.11,2.37-.22l.18,2.14c-4.18.74-8.84.83-12.35.83l-.31-2.41h2.3v-9.2h-1.76v-2.37h11.34v2.37h-1.76v8.86Zm-4.96.27c.69-.02,1.41-.04,2.12-.07v-9.07h-2.12v9.13Zm14.2-3.19h-2.99v10.38h-2.95v-20.57h2.95v7.75h2.99v2.43Z"/><path class="cls-1" d="m80.66,132.38v2.39h-18.62v-2.39h18.62Zm-1.99-2.88h-14.45v-11.43h14.29v2.37h-11.3v2.17h10.83v2.28h-10.83v2.3h11.45v2.32Z"/><path class="cls-1" d="m86.57,129.9c2.57-.04,5.23-.27,7.97-.8l.34,2.41c-3.33.67-6.45.85-9.49.85h-1.74v-13.6h2.92v11.14Zm13.29-13.35v20.65h-2.95v-11.9h-5.54v-2.39h5.54v-6.36h2.95Z"/><path class="cls-4" d="m13.66,183.08c0,5.11-2.56,8.32-6.08,8.32s-6.05-3.21-6.05-8.32,2.56-8.29,6.05-8.29,6.08,3.23,6.08,8.29Zm-9.54,0c0,3.7,1.43,5.92,3.47,5.92s3.49-2.22,3.49-5.92-1.43-5.87-3.49-5.87-3.47,2.22-3.47,5.87Zm16.01-10.04v23.63h-2.71v-23.63h2.71Z"/><path class="cls-4" d="m46.04,187.72h-5.35v8.92h-2.69v-8.92h-5.4v8.92h-2.69v-8.92h-5.19v-2.22h15.31c.31-1.46.52-2.74.65-3.94l-13.74.68-.34-2.27,14.21-.5c.05-1.04.05-1.98.05-2.92h-13.54v-2.19h16.14v2.17c0,2.43,0,5.14-.81,8.97h3.36v2.22Z"/><path class="cls-3" d="m61.54,173.51h2.5v21.98h-2.5v-11.29h-2.5c-.23,4.59-2.16,7.41-5.03,7.41-3.05,0-5.06-3.21-5.06-8.37s2.01-8.35,5.06-8.35c2.82,0,4.72,2.69,5.01,7.09h2.53v-8.48Zm-4.93,9.73c0-3.73-.99-5.82-2.61-5.82s-2.61,2.09-2.61,5.82.99,5.84,2.61,5.84,2.61-2.11,2.61-5.84Zm12.21-10.17v23.52h-2.56v-23.52h2.56Z"/><path class="cls-3" d="m94.05,191.5v2.22h-21.39v-2.22h21.39Zm-16.14-14.06h-3.47v-2.16h17.71v2.16h-3.47v7.69h3.42v2.19h-17.58v-2.19h3.39v-7.69Zm8.11,0h-5.42v7.69h5.42v-7.69Z"/><path class="cls-3" d="m107.47,181.83c-.44,2.76-2.56,4.64-5.29,4.64-3.1,0-5.35-2.4-5.35-5.79s2.24-5.84,5.35-5.84c2.79,0,4.9,1.93,5.32,4.77h2.03v-6.1h2.5v16.46h-2.5v-8.14h-2.06Zm-5.29,2.35c1.72,0,2.97-1.41,2.97-3.49s-1.25-3.55-2.97-3.55-2.95,1.38-2.95,3.55,1.25,3.49,2.95,3.49Zm15.07,9.81v2.19h-16.22v-7.8h2.71v5.61h13.51Zm-.65-3.34h-2.56v-17.58h2.56v17.58Z"/><path class="cls-2" d="m.63.71C.89.39,1.17.16,1.49.02l.1.21c-.25.14-.46.32-.64.54-.18.21-.27.43-.27.65,0,.04.01.08.04.1.03.02.06.03.1.03.23-.02.36-.04.38-.04.12,0,.25.04.38.13.14.09.21.23.21.44,0,.18-.06.32-.17.45s-.28.18-.49.18c-.25,0-.46-.1-.63-.29-.17-.19-.26-.44-.26-.73,0-.34.13-.67.38-.98Zm2.53-.01c.26-.31.54-.54.85-.68l.1.21c-.25.14-.46.32-.64.53-.18.21-.27.43-.27.64,0,.04.01.07.03.1s.06.04.11.04c.23-.02.35-.04.38-.04.13,0,.26.05.4.14.13.1.2.24.2.42,0,.15-.05.29-.15.43-.1.14-.27.21-.51.21-.26,0-.47-.1-.63-.3-.16-.2-.25-.42-.25-.68,0-.38.13-.73.39-1.04Z"/><path class="cls-2" d="m5.01,7.23c.45-.03.74-.1.87-.2s.2-.36.2-.79V1.35c0-.4-.07-.67-.2-.78-.13-.12-.42-.19-.87-.21v-.2h3.25v.2c-.45.02-.74.09-.87.21-.13.12-.2.38-.2.78v4.89c0,.42.07.69.2.79s.42.17.87.2v.2h-3.25v-.2Z"/><path class="cls-2" d="m9.78.14c.05.09.08.22.08.37,0,.02,0,.05,0,.08,0,.02-.01.1-.02.22l-.27,2.36h-.19l-.28-2.19c-.01-.09-.02-.18-.03-.26,0-.09-.01-.17-.01-.26,0-.11.02-.21.07-.31.05-.1.16-.15.32-.15s.28.05.33.14Z"/><path class="cls-2" d="m10.66,7.29c.28-.02.47-.07.56-.14.14-.1.21-.31.21-.62v-2.78c0-.27-.03-.44-.1-.52-.07-.08-.19-.12-.35-.12-.08,0-.13,0-.17.01-.04,0-.08.02-.13.04v-.19l.39-.13c.14-.05.37-.13.69-.25s.49-.18.5-.18.03,0,.03.03,0,.05,0,.1v.73c.35-.32.66-.55.92-.67.26-.12.52-.19.79-.19.37,0,.66.13.88.38.11.14.21.32.28.55.27-.27.5-.47.69-.6.34-.22.69-.33,1.04-.33.58,0,.96.23,1.15.7.11.27.17.68.17,1.26v2.23c0,.25.06.43.17.52.11.09.32.15.61.18v.14h-2.42v-.15c.31-.03.52-.09.61-.19.1-.1.15-.29.15-.59v-2.31c0-.35-.04-.6-.11-.77-.13-.29-.39-.44-.78-.44-.23,0-.46.08-.69.23-.13.09-.3.23-.49.43v2.75c0,.29.05.51.15.66.1.15.32.23.65.24v.14h-2.47v-.14c.34-.04.56-.13.65-.25s.14-.42.14-.9v-1.5c0-.55-.04-.93-.11-1.14-.12-.35-.37-.53-.75-.53-.22,0-.43.06-.64.18-.21.12-.4.28-.56.47v2.94c0,.27.05.46.14.56.09.1.3.16.62.16v.14h-2.44v-.14Z"/><path class="cls-2" d="m21.98,7.28c.25-.03.43-.1.53-.19.1-.1.15-.31.15-.64v-2.73c0-.23-.02-.39-.06-.48-.07-.14-.21-.2-.42-.2-.03,0-.07,0-.1,0-.03,0-.08,0-.13.02v-.19c.15-.04.49-.15,1.04-.33l.5-.17s.04,0,.05.03c0,.02,0,.04,0,.08v.79c.33-.31.59-.52.77-.63.28-.18.57-.26.87-.26.24,0,.46.07.66.21.39.27.58.76.58,1.46v2.51c0,.26.05.44.15.56s.28.17.52.18v.15h-2.29v-.15c.26-.04.44-.11.55-.22.1-.11.16-.35.16-.71v-2.29c0-.31-.06-.56-.17-.77-.11-.2-.32-.3-.63-.3-.21,0-.42.07-.64.21-.12.08-.28.22-.47.41v3.01c0,.26.06.43.17.52.11.09.3.14.54.14v.15h-2.35v-.15Z"/><path class="cls-2" d="m28.24,3.13c.45-.49,1.04-.74,1.75-.74s1.3.23,1.76.7.7,1.08.7,1.86c0,.71-.23,1.33-.68,1.86s-1.03.79-1.75.79-1.27-.25-1.75-.76-.71-1.14-.71-1.9c0-.71.23-1.31.68-1.81Zm.86-.14c-.36.33-.54.89-.54,1.69,0,.64.14,1.23.43,1.78s.69.83,1.2.83c.4,0,.71-.18.93-.55.22-.37.33-.85.33-1.45s-.14-1.2-.41-1.75c-.28-.55-.68-.82-1.2-.82-.28,0-.53.09-.74.28Z"/><path class="cls-2" d="m35.58,2.48v.39h-1.1v3.09c-.01.27.01.48.06.62.09.25.25.37.5.37.13,0,.24-.03.34-.09.09-.06.2-.16.32-.29l.14.12-.12.16c-.19.25-.38.43-.59.53s-.41.16-.6.16c-.42,0-.71-.19-.86-.56-.08-.2-.12-.49-.12-.85v-3.25h-.59s-.03-.02-.04-.03c0-.01-.01-.02-.01-.04,0-.04,0-.06.02-.08.02-.02.07-.07.15-.14.25-.2.43-.37.53-.5.11-.13.37-.46.77-1.01.05,0,.07,0,.08.01,0,0,.01.03.01.08v1.32h1.08Z"/><path class="cls-2" d="m39.16,5.74h.18c.08.41.19.72.33.94.25.4.62.6,1.1.6.27,0,.48-.07.64-.22.16-.15.23-.34.23-.58,0-.15-.04-.3-.13-.44s-.25-.28-.47-.41l-.6-.34c-.44-.24-.76-.47-.97-.71-.21-.24-.31-.52-.31-.85,0-.4.14-.73.43-.99s.65-.39,1.08-.39c.19,0,.4.04.63.11.23.07.36.11.38.11.06,0,.11,0,.14-.03s.05-.05.08-.09h.13l.04,1.5h-.17c-.07-.35-.17-.62-.29-.81-.22-.36-.54-.54-.96-.54-.25,0-.45.08-.59.23s-.21.33-.21.54c0,.33.25.62.74.88l.71.38c.76.42,1.14.9,1.14,1.45,0,.42-.16.77-.47,1.04s-.73.4-1.24.4c-.21,0-.46-.04-.73-.11-.27-.07-.43-.11-.48-.11-.04,0-.08.02-.11.05-.03.03-.06.07-.08.11h-.14v-1.73Z"/><path class="cls-2" d="m43.05,7.29c.28-.02.47-.07.56-.14.14-.1.21-.31.21-.62v-2.78c0-.27-.03-.44-.1-.52-.07-.08-.19-.12-.35-.12-.08,0-.13,0-.17.01-.04,0-.08.02-.13.04v-.19l.39-.13c.14-.05.37-.13.69-.25s.49-.18.5-.18.03,0,.03.03,0,.05,0,.1v.73c.35-.32.66-.55.92-.67.26-.12.52-.19.79-.19.37,0,.66.13.88.38.11.14.21.32.28.55.27-.27.5-.47.69-.6.34-.22.69-.33,1.04-.33.58,0,.96.23,1.15.7.11.27.17.68.17,1.26v2.23c0,.25.06.43.17.52.11.09.32.15.61.18v.14h-2.42v-.15c.31-.03.52-.09.61-.19.1-.1.15-.29.15-.59v-2.31c0-.35-.04-.6-.11-.77-.13-.29-.39-.44-.78-.44-.23,0-.46.08-.69.23-.13.09-.3.23-.49.43v2.75c0,.29.05.51.15.66.1.15.32.23.65.24v.14h-2.47v-.14c.34-.04.56-.13.65-.25s.14-.42.14-.9v-1.5c0-.55-.04-.93-.11-1.14-.12-.35-.37-.53-.75-.53-.22,0-.43.06-.64.18-.21.12-.4.28-.56.47v2.94c0,.27.05.46.14.56.09.1.3.16.62.16v.14h-2.44v-.14Z"/><path class="cls-2" d="m52.61,5.06c.33-.21.99-.51,1.97-.88v-.46c0-.37-.04-.62-.11-.76-.12-.24-.37-.36-.76-.36-.18,0-.36.05-.52.14-.16.1-.25.23-.25.4,0,.04,0,.12.03.22.02.1.03.17.03.2,0,.2-.07.34-.2.42-.08.05-.16.07-.27.07-.16,0-.28-.05-.37-.16-.09-.11-.13-.22-.13-.35,0-.25.15-.51.46-.79.31-.27.76-.41,1.36-.41.69,0,1.17.23,1.41.68.13.25.2.61.2,1.08v2.15c0,.21.01.35.04.43.05.14.14.21.29.21.08,0,.15-.01.2-.04s.15-.09.28-.18v.28c-.11.14-.24.25-.37.34-.2.14-.4.2-.61.2-.24,0-.42-.08-.53-.24-.11-.16-.17-.35-.18-.56-.27.24-.5.41-.7.53-.33.19-.64.29-.93.29-.31,0-.57-.11-.8-.32-.23-.22-.34-.49-.34-.82,0-.52.26-.95.78-1.3Zm1.97-.61c-.41.14-.75.29-1.02.45-.52.32-.77.68-.77,1.08,0,.33.11.57.32.72.14.1.3.15.47.15.24,0,.46-.07.68-.2.22-.13.32-.3.32-.5v-1.7Z"/><path class="cls-2" d="m56.36,7.26c.33-.03.55-.09.66-.17.11-.09.16-.27.16-.56v-2.42c0-.35-.03-.61-.1-.76-.07-.15-.19-.23-.36-.23-.04,0-.08,0-.14.01-.06,0-.12.02-.19.04v-.18c.2-.07.41-.15.63-.22s.36-.13.44-.16c.18-.07.36-.15.55-.23.03,0,.04,0,.05.03,0,.02,0,.06,0,.11v.88c.23-.32.45-.57.67-.75.21-.18.44-.27.67-.27.18,0,.33.05.45.16.11.11.17.25.17.41,0,.15-.04.27-.13.37-.09.1-.2.15-.33.15s-.27-.06-.41-.19c-.14-.13-.25-.19-.33-.19-.13,0-.28.1-.46.3-.18.2-.27.41-.27.63v2.42c0,.31.07.52.21.64.14.12.38.18.71.17v.18h-2.65v-.18Z"/><path class="cls-2" d="m62.77,2.48v.39h-1.1v3.09c-.01.27.01.48.06.62.09.25.25.37.5.37.13,0,.24-.03.34-.09.09-.06.2-.16.32-.29l.14.12-.12.16c-.19.25-.38.43-.59.53s-.41.16-.6.16c-.42,0-.71-.19-.86-.56-.08-.2-.12-.49-.12-.85v-3.25h-.59s-.03-.02-.04-.03c0-.01-.01-.02-.01-.04,0-.04,0-.06.02-.08.02-.02.07-.07.15-.14.25-.2.43-.37.53-.5.11-.13.37-.46.77-1.01.05,0,.07,0,.08.01,0,0,.01.03.01.08v1.32h1.08Z"/><path class="cls-2" d="m65.33,8.33c-.26.31-.54.54-.84.67l-.1-.21c.34-.19.58-.4.71-.63.13-.23.2-.41.2-.56,0-.05-.02-.08-.05-.1s-.07-.02-.1-.02l-.36.04c-.15,0-.29-.05-.41-.15-.13-.1-.19-.24-.19-.43,0-.14.05-.28.16-.42s.27-.2.51-.2.43.09.61.27c.18.18.27.42.27.74,0,.36-.13.7-.39,1.01Z"/><path class="cls-2" d="m.13,20.43c.45-.03.74-.1.87-.2s.2-.36.2-.79v-4.89c0-.4-.07-.67-.2-.78-.13-.12-.42-.19-.87-.21v-.2h3.25v.2c-.45.02-.74.09-.87.21-.13.12-.2.38-.2.78v4.89c0,.42.07.69.2.79s.42.17.87.2v.2H.13v-.2Z"/><path class="cls-2" d="m6.72,22.33c.18.22.33.34.47.34.23,0,.38-.13.46-.39.05-.16.07-.42.08-.79,0-.13,0-.46,0-.98v-3.53c0-.24-.02-.42-.07-.54-.05-.12-.15-.17-.32-.17-.05,0-.12,0-.2.03-.08.02-.16.04-.25.06v-.17l.46-.15c.11-.04.25-.08.43-.15.18-.06.35-.12.51-.19l.32-.11s.02.05.02.08v4.96c0,.62-.08,1.1-.24,1.45-.29.64-.83.96-1.64.96-.27,0-.5-.05-.71-.16-.21-.11-.31-.25-.31-.43,0-.12.04-.22.12-.31.08-.09.19-.14.32-.14.19,0,.37.11.54.34Zm1.02-9.03c.11-.11.24-.17.4-.17s.29.06.4.17c.11.11.16.24.16.4s-.05.28-.16.39c-.11.11-.24.16-.4.16s-.29-.05-.4-.16c-.11-.11-.16-.24-.16-.39s.05-.29.16-.4Z"/><path class="cls-2" d="m11.12,15.66v3.44c0,.24.03.44.1.59.13.27.38.41.73.41.24,0,.48-.08.71-.24.13-.09.27-.21.4-.37v-2.94c0-.28-.05-.46-.16-.54s-.32-.14-.64-.16v-.18h1.73v3.78c0,.24.04.41.13.5.09.09.27.13.56.12v.15c-.2.05-.34.09-.44.12-.09.03-.25.08-.47.15-.09.03-.3.11-.61.23-.02,0-.03,0-.03-.02,0-.02,0-.04,0-.06v-.86c-.24.29-.47.5-.67.64-.3.21-.63.32-.97.32-.31,0-.6-.11-.88-.33-.28-.22-.42-.59-.42-1.1v-2.79c0-.28-.06-.47-.18-.57-.08-.06-.25-.1-.5-.13v-.15h1.61Z"/><path class="cls-2" d="m15.49,18.94h.18c.08.41.19.72.33.94.25.4.62.6,1.1.6.27,0,.48-.07.64-.22.16-.15.23-.34.23-.58,0-.15-.04-.3-.13-.44s-.25-.28-.47-.41l-.6-.34c-.44-.24-.76-.47-.97-.71-.21-.24-.31-.52-.31-.85,0-.4.14-.73.43-.99s.65-.39,1.08-.39c.19,0,.4.04.63.11.23.07.36.11.38.11.06,0,.11,0,.14-.03s.05-.05.08-.09h.13l.04,1.5h-.17c-.07-.35-.17-.62-.29-.81-.22-.36-.54-.54-.96-.54-.25,0-.45.08-.59.23s-.21.33-.21.54c0,.33.25.62.74.88l.71.38c.76.42,1.14.9,1.14,1.45,0,.42-.16.77-.47,1.04s-.73.4-1.24.4c-.21,0-.46-.04-.73-.11-.27-.07-.43-.11-.48-.11-.04,0-.08.02-.11.05-.03.03-.06.07-.08.11h-.14v-1.73Z"/><path class="cls-2" d="m22,15.68v.39h-1.1v3.09c-.01.27.01.48.06.62.09.25.25.37.5.37.13,0,.24-.03.34-.09.09-.06.2-.16.32-.29l.14.12-.12.16c-.19.25-.38.43-.59.53s-.41.16-.6.16c-.42,0-.71-.19-.86-.56-.08-.2-.12-.49-.12-.85v-3.25h-.59s-.03-.02-.04-.03c0-.01-.01-.02-.01-.04,0-.04,0-.06.02-.08.02-.02.07-.07.15-.14.25-.2.43-.37.53-.5.11-.13.37-.46.77-1.01.05,0,.07,0,.08.01,0,0,.01.03.01.08v1.32h1.08Z"/><path class="cls-2" d="m25.58,18.94h.18c.08.41.19.72.33.94.25.4.62.6,1.1.6.27,0,.48-.07.64-.22.16-.15.23-.34.23-.58,0-.15-.04-.3-.13-.44s-.25-.28-.47-.41l-.6-.34c-.44-.24-.76-.47-.97-.71-.21-.24-.31-.52-.31-.85,0-.4.14-.73.43-.99s.65-.39,1.08-.39c.19,0,.4.04.63.11.23.07.36.11.38.11.06,0,.11,0,.14-.03s.05-.05.08-.09h.13l.04,1.5h-.17c-.07-.35-.17-.62-.29-.81-.22-.36-.54-.54-.96-.54-.25,0-.45.08-.59.23s-.21.33-.21.54c0,.33.25.62.74.88l.71.38c.76.42,1.14.9,1.14,1.45,0,.42-.16.77-.47,1.04s-.73.4-1.24.4c-.21,0-.46-.04-.73-.11-.27-.07-.43-.11-.48-.11-.04,0-.08.02-.11.05-.03.03-.06.07-.08.11h-.14v-1.73Z"/><path class="cls-2" d="m32.09,15.68v.39h-1.1v3.09c-.01.27.01.48.06.62.09.25.25.37.5.37.13,0,.24-.03.34-.09.09-.06.2-.16.32-.29l.14.12-.12.16c-.19.25-.38.43-.59.53s-.41.16-.6.16c-.42,0-.71-.19-.86-.56-.08-.2-.12-.49-.12-.85v-3.25h-.59s-.03-.02-.04-.03c0-.01-.01-.02-.01-.04,0-.04,0-.06.02-.08.02-.02.07-.07.15-.14.25-.2.43-.37.53-.5.11-.13.37-.46.77-1.01.05,0,.07,0,.08.01,0,0,.01.03.01.08v1.32h1.08Z"/><path class="cls-2" d="m33.53,18.27c.33-.21.99-.51,1.97-.88v-.46c0-.37-.04-.62-.11-.76-.12-.24-.37-.36-.76-.36-.18,0-.36.05-.52.14-.16.1-.25.23-.25.4,0,.04,0,.12.03.22.02.1.03.17.03.2,0,.2-.07.34-.2.42-.08.05-.16.07-.27.07-.16,0-.28-.05-.37-.16-.09-.11-.13-.22-.13-.35,0-.25.15-.51.46-.79.31-.27.76-.41,1.36-.41.69,0,1.17.23,1.41.68.13.25.2.61.2,1.08v2.15c0,.21.01.35.04.43.05.14.14.21.29.21.08,0,.15-.01.2-.04s.15-.09.28-.18v.28c-.11.14-.24.25-.37.34-.2.14-.4.2-.61.2-.24,0-.42-.08-.53-.24-.11-.16-.17-.35-.18-.56-.27.24-.5.41-.7.53-.33.19-.64.29-.93.29-.31,0-.57-.11-.8-.32-.23-.22-.34-.49-.34-.82,0-.52.26-.95.78-1.3Zm1.97-.61c-.41.14-.75.29-1.02.45-.52.32-.77.68-.77,1.08,0,.33.11.57.32.72.14.1.3.15.47.15.24,0,.46-.07.68-.2.22-.13.32-.3.32-.5v-1.7Z"/><path class="cls-2" d="m37.38,15.7h2.27v.15c-.18,0-.31.02-.4.05-.16.05-.25.14-.25.28,0,.05,0,.1.03.16.02.05.05.13.1.24l1.24,2.69,1.02-2.71s.03-.1.05-.2c.02-.1.03-.17.03-.21,0-.1-.03-.17-.1-.21s-.15-.07-.25-.08h-.17v-.16h1.48v.15c-.15.02-.26.07-.33.16-.07.08-.14.2-.19.35l-1.69,4.48c-.29.77-.57,1.33-.84,1.68s-.61.52-1.02.52c-.2,0-.39-.05-.56-.15s-.26-.26-.26-.48c0-.14.05-.26.16-.35.1-.09.24-.14.4-.14.09,0,.23.03.41.1s.31.1.39.1c.2,0,.41-.24.63-.73.22-.49.33-.81.33-.96,0-.03,0-.07-.02-.12s-.02-.09-.04-.12l-1.69-3.66c-.12-.27-.23-.44-.32-.52-.09-.08-.23-.14-.41-.16v-.15Z"/><path class="cls-2" d="m50.59,15.79c-.21.03-.37.06-.48.11-.1.05-.16.14-.16.28,0,.08.01.16.03.24.02.08.05.18.09.29l.98,2.54.95-2.32c.04-.1.09-.23.14-.39.05-.16.08-.29.08-.37,0-.13-.04-.22-.12-.27s-.2-.08-.36-.1v-.15h1.36v.15c-.09.02-.16.06-.22.13s-.14.23-.24.48l-1.72,4.24s-.03.06-.04.07-.03.02-.05.02c-.04-.02-.07-.04-.08-.06l-1.31-3.25-1.31,3.24s-.02.03-.03.05c-.01.01-.03.02-.05.02-.04-.02-.07-.04-.08-.05l-1.61-3.96c-.18-.44-.29-.7-.35-.77-.06-.08-.17-.13-.34-.15v-.15h1.99v.15c-.17.01-.29.04-.38.09-.09.05-.13.14-.13.29,0,.1.07.36.22.77.09.23.2.51.33.84l.62,1.5.95-2.03v-.06c.01-.07-.03-.21-.1-.4-.08-.2-.15-.37-.22-.53-.07-.17-.15-.28-.24-.34-.09-.06-.22-.1-.38-.12v-.15h2.24v.15Z"/><path class="cls-2" d="m53.63,20.48c.38-.04.62-.1.73-.2.1-.09.15-.35.15-.77v-2.56c0-.23-.02-.39-.05-.48-.05-.15-.17-.22-.34-.22-.04,0-.08,0-.12.01-.04,0-.15.04-.32.09v-.17l.23-.08c.63-.2,1.06-.36,1.31-.46.1-.04.16-.06.19-.06,0,.02.01.05.01.08v3.86c0,.41.05.66.15.77.1.1.32.17.67.2v.15h-2.61v-.15Zm.85-7.18c.11-.11.24-.17.4-.17s.29.05.4.16c.11.11.16.24.16.4s-.05.28-.16.39c-.11.11-.24.16-.4.16s-.29-.05-.4-.16c-.11-.11-.16-.24-.16-.39s.05-.29.16-.4Z"/><path class="cls-2" d="m59.27,15.68v.39h-1.1v3.09c-.01.27.01.48.06.62.09.25.25.37.5.37.13,0,.24-.03.34-.09.09-.06.2-.16.32-.29l.14.12-.12.16c-.19.25-.38.43-.59.53s-.41.16-.6.16c-.42,0-.71-.19-.86-.56-.08-.2-.12-.49-.12-.85v-3.25h-.59s-.03-.02-.04-.03c0-.01-.01-.02-.01-.04,0-.04,0-.06.02-.08.02-.02.07-.07.15-.14.25-.2.43-.37.53-.5.11-.13.37-.46.77-1.01.05,0,.07,0,.08.01,0,0,.01.03.01.08v1.32h1.08Z"/><path class="cls-2" d="m59.63,20.48c.29-.04.49-.11.58-.22.09-.11.14-.35.14-.75v-5.16c0-.2-.03-.35-.08-.44-.05-.09-.18-.14-.38-.14-.04,0-.08,0-.12,0-.04,0-.08.01-.13.02v-.19c.16-.05.35-.1.58-.17.23-.07.39-.11.48-.14l.52-.16v.04s.01,3.3.01,3.3c.23-.26.43-.45.6-.57.31-.21.66-.32,1.02-.32.58,0,.98.24,1.19.73.11.26.17.6.17,1.02v2.19c0,.38.04.63.13.74.09.11.27.19.54.23v.15h-2.33v-.15c.31-.04.51-.12.6-.22s.13-.35.13-.75v-2.18c0-.35-.06-.63-.17-.84-.12-.21-.34-.32-.66-.32-.28,0-.55.1-.81.3s-.39.33-.39.39v2.65c0,.4.05.65.14.75s.29.17.6.21v.15h-2.37v-.15Z"/><path class="cls-2" d="m67.84,22.85c.33-.02.55-.09.64-.21s.14-.31.14-.57v-5.16c0-.27-.03-.45-.1-.52-.07-.08-.19-.12-.37-.12-.04,0-.08,0-.11,0-.03,0-.08.01-.15.02v-.18l.51-.17s.38-.13,1.08-.37c.02,0,.03,0,.04.02,0,.02.01.04.01.06v.72c.24-.24.44-.41.62-.53.32-.2.65-.3.99-.3.49,0,.92.21,1.28.63s.53,1,.53,1.73-.21,1.36-.64,1.95-.97.87-1.61.87c-.2,0-.37-.02-.52-.08-.23-.08-.44-.21-.63-.41v1.76c0,.36.06.58.18.67s.38.14.77.17v.19h-2.65v-.18Zm2.12-2.67c.18.12.4.18.65.18.39,0,.72-.19.99-.58.27-.38.41-.92.41-1.61s-.14-1.15-.43-1.48c-.28-.33-.61-.49-.99-.49-.27,0-.51.08-.73.24-.22.16-.33.32-.33.48v2.7c.09.24.23.42.42.54Z"/><path class="cls-2" d="m73.33,20.46c.33-.03.55-.09.66-.17.11-.09.16-.27.16-.56v-2.42c0-.35-.03-.61-.1-.76-.07-.15-.19-.23-.36-.23-.04,0-.08,0-.14.01-.06,0-.12.02-.19.04v-.18c.2-.07.41-.15.63-.22.21-.08.36-.13.44-.16.18-.07.36-.15.55-.23.03,0,.04,0,.05.03,0,.02,0,.06,0,.11v.88c.23-.32.45-.57.67-.75.21-.18.44-.27.67-.27.18,0,.33.05.45.16.12.11.17.25.17.41,0,.15-.04.27-.13.37s-.2.15-.33.15-.27-.06-.41-.19-.25-.19-.33-.19c-.12,0-.28.1-.46.3-.18.2-.27.41-.27.63v2.42c0,.31.07.52.21.64.14.12.38.18.71.17v.18h-2.65v-.18Z"/><path class="cls-2" d="m77.9,16.33c.45-.49,1.04-.74,1.75-.74s1.3.23,1.76.7c.47.47.7,1.08.7,1.86,0,.71-.23,1.33-.68,1.86s-1.03.79-1.75.79-1.27-.25-1.75-.76c-.48-.5-.71-1.14-.71-1.9,0-.71.23-1.31.68-1.81Zm.86-.14c-.36.33-.54.89-.54,1.69,0,.64.14,1.23.43,1.78.29.55.69.83,1.2.83.4,0,.71-.18.93-.55s.33-.85.33-1.45-.14-1.2-.41-1.75-.68-.82-1.2-.82c-.28,0-.53.09-.74.28Z"/><path class="cls-2" d="m82.48,13.8v-.18c.41-.09.78-.2,1.1-.31s.5-.17.53-.17c0,.02.01.04.01.06v3.27c.09-.17.23-.33.42-.49.33-.27.71-.4,1.14-.4.53,0,.97.22,1.35.67.37.44.56,1.02.56,1.73,0,.76-.24,1.41-.72,1.95-.48.54-1.12.81-1.91.81-.4,0-.79-.08-1.17-.24-.38-.16-.58-.31-.58-.47v-5.68c0-.21-.03-.36-.09-.44-.06-.09-.19-.13-.4-.13l-.24.03Zm2.04,6.44c.25.08.46.12.65.12.5,0,.87-.19,1.11-.56s.36-.83.36-1.36-.11-1.03-.34-1.48c-.22-.45-.59-.68-1.09-.68-.25,0-.5.08-.74.23-.24.16-.36.35-.36.59v2.74c.03.19.17.32.42.4Z"/><path class="cls-2" d="m88.17,20.48c.33-.03.56-.1.68-.2.12-.1.18-.3.18-.6v-5.25c0-.24-.02-.4-.06-.49-.07-.15-.22-.23-.43-.23-.05,0-.11,0-.16.02-.06.01-.13.03-.22.05v-.18c.48-.13,1.06-.3,1.75-.52.03,0,.04.01.05.03,0,.02,0,.07,0,.14v6.44c0,.31.05.51.16.6.11.09.33.15.67.17v.15h-2.6v-.15Z"/><path class="cls-2" d="m94.85,16.12c.38.35.57.84.57,1.49h-3.41c.04.83.22,1.43.56,1.81.34.38.74.57,1.21.57.38,0,.69-.1.95-.29.26-.2.5-.48.71-.84l.19.06c-.15.46-.42.88-.82,1.26-.4.39-.9.58-1.48.58-.67,0-1.19-.25-1.56-.76s-.55-1.09-.55-1.76c0-.72.21-1.34.64-1.86.43-.52.98-.78,1.67-.78.5,0,.95.17,1.33.52Zm-2.57.41c-.12.19-.2.44-.25.73h2.27c-.04-.36-.11-.62-.21-.8-.17-.31-.47-.47-.88-.47s-.72.18-.93.54Z"/><path class="cls-2" d="m96.06,20.49c.28-.02.46-.07.56-.14.14-.1.21-.31.21-.62v-2.78c0-.27-.04-.44-.11-.52-.07-.08-.19-.12-.35-.12-.08,0-.13,0-.17.01-.04,0-.08.02-.13.04v-.19l.39-.13c.14-.05.37-.13.69-.25.32-.12.49-.18.5-.18.02,0,.03,0,.03.03,0,.02,0,.05,0,.1v.73c.35-.32.66-.55.92-.67.26-.12.52-.19.79-.19.37,0,.66.13.88.38.11.14.21.32.28.55.26-.27.5-.47.69-.6.34-.22.69-.33,1.04-.33.58,0,.96.23,1.15.7.11.27.17.68.17,1.26v2.23c0,.25.06.43.17.52.11.09.32.15.61.18v.14h-2.42v-.15c.31-.03.52-.09.61-.19s.15-.29.15-.59v-2.31c0-.35-.04-.6-.11-.77-.13-.29-.39-.44-.78-.44-.23,0-.46.08-.69.23-.13.09-.29.23-.49.43v2.75c0,.29.05.51.15.66.1.15.32.23.65.24v.14h-2.47v-.14c.34-.04.56-.13.65-.25s.14-.42.14-.9v-1.5c0-.55-.04-.93-.11-1.14-.12-.35-.37-.53-.75-.53-.22,0-.43.06-.64.18-.21.12-.4.28-.56.47v2.94c0,.27.05.46.14.56s.3.16.62.16v.14h-2.44v-.14Z"/><path class="cls-2" d="m105.01,18.94h.18c.08.41.19.72.33.94.25.4.62.6,1.1.6.27,0,.48-.07.63-.22.16-.15.23-.34.23-.58,0-.15-.04-.3-.13-.44-.09-.14-.25-.28-.47-.41l-.6-.34c-.44-.24-.76-.47-.97-.71s-.31-.52-.31-.85c0-.4.14-.73.43-.99s.65-.39,1.08-.39c.19,0,.4.04.62.11s.36.11.38.11c.06,0,.11,0,.14-.03.03-.02.05-.05.08-.09h.13l.04,1.5h-.17c-.07-.35-.17-.62-.29-.81-.22-.36-.54-.54-.96-.54-.25,0-.45.08-.59.23s-.21.33-.21.54c0,.33.25.62.74.88l.71.38c.76.42,1.14.9,1.14,1.45,0,.42-.16.77-.47,1.04s-.73.4-1.24.4c-.21,0-.46-.04-.73-.11s-.43-.11-.48-.11c-.04,0-.08.02-.11.05-.03.03-.06.07-.07.11h-.14v-1.73Z"/><path class="cls-2" d="m111.7,20.48c.33-.03.56-.1.68-.2.12-.1.18-.3.18-.6v-5.25c0-.24-.02-.4-.06-.49-.07-.15-.22-.23-.43-.23-.05,0-.11,0-.16.02-.06.01-.13.03-.22.05v-.18c.48-.13,1.06-.3,1.75-.52.03,0,.04.01.05.03,0,.02,0,.07,0,.14v6.44c0,.31.05.51.16.6.11.09.33.15.67.17v.15h-2.6v-.15Z"/><path class="cls-2" d="m115.49,16.33c.45-.49,1.04-.74,1.75-.74s1.3.23,1.76.7.7,1.08.7,1.86c0,.71-.23,1.33-.68,1.86s-1.04.79-1.75.79-1.27-.25-1.75-.76c-.48-.5-.71-1.14-.71-1.9,0-.71.23-1.31.68-1.81Zm.86-.14c-.36.33-.54.89-.54,1.69,0,.64.14,1.23.43,1.78.29.55.69.83,1.2.83.4,0,.71-.18.93-.55.22-.37.33-.85.33-1.45s-.14-1.2-.41-1.75-.68-.82-1.2-.82c-.28,0-.53.09-.74.28Z"/><path class="cls-2" d="m120.23,20.48c.25-.03.43-.1.53-.19.1-.1.15-.31.15-.64v-2.73c0-.23-.02-.39-.06-.48-.07-.14-.21-.2-.42-.2-.03,0-.06,0-.1,0s-.08,0-.13.02v-.19c.15-.04.49-.15,1.04-.33l.51-.17s.04,0,.04.03c0,.02,0,.04,0,.08v.79c.33-.31.59-.52.77-.63.28-.18.57-.26.87-.26.24,0,.46.07.67.21.39.27.58.76.58,1.46v2.51c0,.26.05.44.15.56.1.11.28.17.52.18v.15h-2.29v-.15c.26-.04.44-.11.55-.22.1-.11.16-.35.16-.71v-2.29c0-.31-.06-.56-.17-.77-.11-.2-.32-.3-.63-.3-.21,0-.42.07-.64.21-.12.08-.28.22-.47.41v3.01c0,.26.06.43.17.52.11.09.29.14.54.14v.15h-2.35v-.15Z"/><path class="cls-2" d="m126.54,18.25c-.18-.28-.27-.59-.27-.93,0-.42.17-.82.5-1.19s.8-.56,1.41-.56c.26,0,.55.06.87.19.32.12.62.19.91.19.07,0,.19,0,.34,0,.15,0,.26,0,.33,0h.06v.44h-.93c.06.15.11.28.15.39.06.21.09.4.09.59,0,.41-.17.78-.51,1.13-.34.34-.79.51-1.37.51-.09,0-.25-.02-.48-.05-.1,0-.24.09-.41.26s-.26.32-.26.43.12.2.38.25c.16.04.35.05.55.05.92,0,1.55.05,1.88.16.54.17.81.53.81,1.08s-.32,1.02-.95,1.35-1.27.5-1.92.5c-.59,0-1.05-.12-1.4-.36-.34-.24-.52-.49-.52-.75,0-.13.04-.25.14-.38.09-.12.27-.31.54-.55l.35-.32.06-.06c-.16-.06-.29-.13-.37-.19-.14-.11-.21-.24-.21-.38,0-.13.06-.28.18-.44.12-.16.39-.42.79-.78-.33-.11-.58-.3-.76-.57Zm.57,4c.34.11.73.17,1.16.17.59,0,1.08-.1,1.45-.31.37-.21.56-.46.56-.76,0-.24-.15-.4-.45-.48-.19-.05-.54-.07-1.06-.08-.13,0-.27,0-.42-.01-.15,0-.28-.01-.4-.02-.08,0-.21-.02-.38-.04s-.31-.05-.39-.06c-.04,0-.15.11-.31.34-.17.23-.25.44-.25.63,0,.3.17.51.51.62Zm1.71-3.69c.21-.17.32-.47.32-.9,0-.34-.09-.72-.26-1.15s-.46-.64-.87-.64c-.35,0-.59.17-.72.5-.07.18-.1.39-.1.65,0,.44.11.83.32,1.18s.49.52.82.52c.2,0,.36-.05.49-.16Z"/><path class="cls-2" d="m134.87,16.12c.38.35.57.84.57,1.49h-3.41c.04.83.22,1.43.56,1.81.34.38.74.57,1.21.57.38,0,.69-.1.95-.29.26-.2.5-.48.71-.84l.19.06c-.15.46-.42.88-.82,1.26-.4.39-.9.58-1.48.58-.67,0-1.19-.25-1.56-.76s-.55-1.09-.55-1.76c0-.72.21-1.34.64-1.86.43-.52.98-.78,1.67-.78.5,0,.95.17,1.33.52Zm-2.57.41c-.12.19-.2.44-.25.73h2.27c-.04-.36-.11-.62-.21-.8-.17-.31-.47-.47-.88-.47s-.72.18-.93.54Z"/><path class="cls-2" d="m135.96,20.46c.33-.03.55-.09.65-.17.11-.09.16-.27.16-.56v-2.42c0-.35-.03-.61-.1-.76-.07-.15-.19-.23-.36-.23-.04,0-.08,0-.14.01-.06,0-.12.02-.19.04v-.18c.2-.07.41-.15.63-.22.21-.08.36-.13.44-.16.18-.07.36-.15.55-.23.03,0,.04,0,.05.03,0,.02,0,.06,0,.11v.88c.23-.32.45-.57.67-.75s.44-.27.67-.27c.18,0,.33.05.45.16.12.11.17.25.17.41,0,.15-.04.27-.13.37s-.2.15-.33.15-.27-.06-.41-.19-.25-.19-.33-.19c-.12,0-.28.1-.46.3-.18.2-.27.41-.27.63v2.42c0,.31.07.52.21.64.14.12.38.18.71.17v.18h-2.65v-.18Z"/><path class="cls-2" d="m141.1,15.23c-.26.31-.55.53-.85.66l-.1-.21c.25-.16.47-.34.64-.54s.26-.41.26-.63c0-.04-.01-.07-.03-.1s-.06-.04-.11-.04c-.21.02-.34.04-.38.04-.12,0-.23-.03-.34-.1-.17-.1-.25-.27-.25-.48,0-.15.05-.29.16-.42.11-.13.27-.2.5-.2.26,0,.47.1.63.3s.25.42.25.68c0,.39-.13.75-.39,1.05Zm2.53-.02c-.26.32-.54.54-.85.68l-.1-.21c.38-.22.64-.48.79-.77.08-.15.11-.29.11-.42,0-.04-.01-.07-.04-.09-.03-.02-.06-.04-.11-.04-.21.02-.33.04-.37.04-.14,0-.28-.05-.41-.15s-.19-.24-.19-.42.06-.33.17-.45c.11-.12.28-.18.49-.18.25,0,.46.1.63.29s.25.44.25.73c0,.34-.13.67-.38.99Z"/></svg>