<?xml version="1.0" encoding="UTF-8"?><svg id="Layer_1" xmlns="http://www.w3.org/2000/svg" viewBox="0 0 289.01 282.75"><defs><style>.cls-1{fill:#cad81d;}.cls-1,.cls-2{stroke-width:0px;}.cls-2{fill:#ff4800;}</style></defs><path class="cls-1" d="m209.66,235.77c-19.21,14-42.74,22.39-68.29,22.39-60.25,0-109.97-45.86-116.13-104.5h256.88c.35-4.06.62-8.14.62-12.29C282.75,63.3,219.45,0,141.37,0S0,63.3,0,141.37s63.29,141.37,141.37,141.37c32.28,0,61.96-10.87,85.71-29.1l-17.42-17.88ZM141.37,24.58c60.24,0,109.96,45.85,116.13,104.49H25.25c6.17-58.64,55.88-104.49,116.13-104.49Z"/><path class="cls-2" d="m227.09,253.65l27.59,28.31h34.33l-109.76-112.63h-34.33l64.74,66.44"/></svg>