<?xml version="1.0" encoding="UTF-8"?><svg id="Layer_1" xmlns="http://www.w3.org/2000/svg" viewBox="0 0 341.69 283.67"><defs><style>.cls-1{fill:#353535;}.cls-1,.cls-2,.cls-3{stroke-width:0px;}.cls-2{fill:#cad81d;}.cls-3{fill:#ff4800;}</style></defs><path class="cls-1" d="m45.43,37.68v5.77H.96v-5.77h44.47Zm-11.54-19.78c.11-2.73.11-5.29.11-7.8v-.11H5.93v-5.61h35.01v5.72c0,7.16,0,13.95-2.3,24.64l-6.95-.69c.96-4.01,1.5-7.59,1.82-10.9l-28.12,1.44-.85-5.72,29.34-.96Z"/><path class="cls-1" d="m58.27,32.02c4.65-.11,9.03-.37,14-1.18l.59,5.67c-6.36,1.12-11.81,1.28-17.96,1.28h-3.47v-19.62h10.53v-7.7h-10.58v-5.61h17.43v18.87h-10.53v8.29ZM75.64.91h6.52v46.08h-6.52v-24.43h-4.86v-5.77h4.86V.91Zm16.68-.91v49.23h-6.68V0h6.68Z"/><path class="cls-1" d="m113.38,28.17c-7.54,0-13.42-5.29-13.42-12.45s5.88-12.51,13.42-12.51,13.36,5.24,13.36,12.51-5.83,12.45-13.36,12.45Zm0-6.09c3.69,0,6.47-2.41,6.47-6.36s-2.78-6.41-6.47-6.41-6.52,2.35-6.52,6.41,2.89,6.36,6.52,6.36Zm28.01,20.74v5.61h-34v-16.46h7.06v10.85h26.94Zm-1.23-7.38h-7.11V.11h7.11v35.33Z"/><path class="cls-1" d="m174.42,27.85c-5.4-1.6-9.14-4.86-11.28-8.93-2.19,4.86-6.09,8.77-11.87,10.64l-3.53-5.51c7.96-2.67,11.49-8.93,11.6-15.07h-9.78V3.31h26.62v5.67h-9.62c.11,5.61,3.47,11.12,11.22,13.42l-3.37,5.45Zm13.31,11.92c0,5.99-6.41,9.51-16.62,9.51s-16.68-3.53-16.68-9.51,6.41-9.62,16.68-9.62,16.62,3.58,16.62,9.62Zm-7,0c0-2.83-3.37-4.17-9.62-4.17s-9.67,1.34-9.67,4.17,3.37,4.12,9.67,4.12,9.62-1.34,9.62-4.12Zm12.99-28.38v5.77h-6.52v12.13h-7.06V.05h7.06v11.33h6.52Z"/><path class="cls-1" d="m207.03,3.96v11.92h10.26V3.96h7v33.94h-24.27V3.96h7Zm0,28.33h10.26v-10.9h-10.26v10.9ZM238.41,0v49.39h-7.06V0h7.06Z"/><path class="cls-1" d="m291.33,34.96h-18.81v14.38h-7.06v-14.38h-18.71v-5.72h44.58v5.72Zm-4.65-9.25h-34.37V1.98h33.89v5.56h-26.89v3.58h25.82v5.34h-25.82v3.69h27.37v5.56Z"/><path class="cls-1" d="m314.05,13.31c0,7.48,3.9,16.2,11.97,19.94l-3.9,5.56c-5.45-2.51-9.3-7.43-11.49-13.26-2.19,6.41-6.15,11.81-11.76,14.49l-3.96-5.61c8.07-3.74,12.08-12.99,12.08-21.11v-2.73h-10.21v-5.83h27.05v5.83h-9.78v2.73Zm27.63,11.33h-7.16v24.64h-7.06V.05h7.06v18.76h7.16v5.83Z"/><path class="cls-1" d="m43.14,64.15v49.23h-6.68v-24.37h-3.96v22.18h-6.58v-14.54l-4.06,5.45c-4.17-2.35-6.89-6.31-8.5-11.12-1.71,5.4-4.6,9.89-8.98,12.56l-4.38-5.19c7.38-4.38,10-13.26,10-21.59v-8.29h6.84v7.75c0,8.5,2.3,16.52,9.09,20.31v-31.54h6.58v18.33h3.96v-19.19h6.68Z"/><path class="cls-1" d="m94.67,102.26v5.77h-44.58v-5.77h18.71v-7.32h-13.58v-16.68h27.47v-5.29h-27.53v-5.61h34.48v16.41h-27.42v5.51h28.54v5.67h-14.91v7.32h18.81Z"/><path class="cls-1" d="m143.85,88.09v5.61h-18.28v8.45h-7.22v-8.45h-19.08v-5.61h44.58Zm-40.04-12.77c0-6.2,7.11-10.21,17.69-10.21s17.69,4.01,17.69,10.21-7.06,10.21-17.69,10.21-17.69-3.96-17.69-10.21Zm7.8,31.64h27.37v5.61h-34.53v-14.75h7.16v9.14Zm-.16-31.64c0,3.05,3.9,4.6,10.05,4.6s10.1-1.55,10.1-4.6-3.85-4.6-10.1-4.6-10.05,1.55-10.05,4.6Z"/><path class="cls-1" d="m45.49,148.29v5.61H.91v-5.61h31.21c1.02-4.92,1.18-8.71,1.18-12.13H6.41v-5.61h33.83v3.96c0,3.96,0,8.12-1.12,13.79h6.36Zm-39.34,10.74h33.89v17.96H6.15v-17.96Zm6.95,12.45h20.04v-6.95H13.1v6.95Z"/><path class="cls-1" d="m84.78,155.98v5.99c2.94,1.55,4.54,3.85,4.54,6.68,0,5.72-6.47,8.98-17.1,8.98s-17.05-3.26-17.05-8.98c0-2.94,1.71-5.29,4.81-6.79v-5.88h-9.89v-5.56h44.47v5.56h-9.78Zm-30.25-17.32c0-5.88,6.95-9.46,17.8-9.46s17.85,3.58,17.85,9.46-6.95,9.41-17.85,9.41-17.8-3.53-17.8-9.41Zm7.27,0c0,2.73,3.85,4.12,10.53,4.12s10.58-1.39,10.58-4.12-3.85-4.12-10.58-4.12-10.53,1.34-10.53,4.12Zm20.37,29.99c0-2.51-3.37-3.69-9.94-3.69s-9.94,1.18-9.94,3.69,3.37,3.63,9.94,3.63,9.94-1.12,9.94-3.63Zm-4.44-12.67h-10.74v3.96c1.6-.21,3.37-.32,5.24-.32,1.98,0,3.85.11,5.5.32v-3.96Z"/><path class="cls-1" d="m122.84,159.78c1.92-.16,3.85-.27,5.67-.54l.43,5.13c-10,1.76-21.17,1.98-29.56,1.98l-.75-5.77h5.5v-22.02h-4.22v-5.67h27.15v5.67h-4.22v21.22Zm-11.87.64c1.66-.05,3.37-.11,5.08-.16v-21.7h-5.08v21.86Zm34-7.64h-7.16v24.85h-7.06v-49.23h7.06v18.55h7.16v5.83Z"/><path class="cls-1" d="m193.03,166.19v5.72h-44.58v-5.72h44.58Zm-4.76-6.9h-34.58v-27.37h34.21v5.67h-27.05v5.18h25.92v5.45h-25.92v5.51h27.42v5.56Z"/><path class="cls-1" d="m207.14,160.26c6.15-.11,12.51-.64,19.08-1.92l.8,5.77c-7.96,1.6-15.45,2.03-22.72,2.03h-4.17v-32.55h7v26.67Zm31.8-31.96v49.44h-7.06v-28.49h-13.26v-5.72h13.26v-15.23h7.06Z"/><path class="cls-3" d="m27.79,255.82c0,10.48-5.24,17.05-12.45,17.05s-12.4-6.58-12.4-17.05,5.24-17,12.4-17,12.45,6.63,12.45,17Zm-19.56,0c0,7.59,2.94,12.13,7.11,12.13s7.16-4.54,7.16-12.13-2.94-12.03-7.16-12.03-7.11,4.54-7.11,12.03Zm32.82-20.58v48.43h-5.56v-48.43h5.56Z"/><path class="cls-3" d="m94.19,265.34h-10.96v18.28h-5.51v-18.28h-11.06v18.28h-5.5v-18.28h-10.64v-4.54h31.38c.64-2.99,1.07-5.61,1.34-8.07l-28.17,1.39-.7-4.65,29.13-1.02c.11-2.14.11-4.06.11-5.99h-27.74v-4.49h33.09v4.44c0,4.97,0,10.53-1.66,18.39h6.89v4.54Z"/><path class="cls-2" d="m125.99,236.21h5.13v45.06h-5.13v-23.14h-5.13c-.48,9.41-4.44,15.18-10.32,15.18-6.25,0-10.37-6.58-10.37-17.16s4.12-17.1,10.37-17.1c5.77,0,9.67,5.5,10.26,14.54h5.18v-17.37Zm-10.1,19.94c0-7.64-2.03-11.92-5.34-11.92s-5.35,4.28-5.35,11.92,2.03,11.97,5.35,11.97,5.34-4.33,5.34-11.97Zm25.02-20.85v48.21h-5.24v-48.21h5.24Z"/><path class="cls-2" d="m192.65,273.09v4.54h-43.83v-4.54h43.83Zm-33.09-28.81h-7.11v-4.44h36.29v4.44h-7.11v15.77h7v4.49h-36.03v-4.49h6.95v-15.77Zm16.62,0h-11.12v15.77h11.12v-15.77Z"/><path class="cls-2" d="m220.18,253.26c-.91,5.67-5.24,9.51-10.85,9.51-6.36,0-10.96-4.92-10.96-11.87s4.6-11.97,10.96-11.97c5.72,0,10.05,3.96,10.9,9.78h4.17v-12.51h5.13v33.73h-5.13v-16.68h-4.22Zm-10.85,4.81c3.53,0,6.09-2.89,6.09-7.16s-2.57-7.27-6.09-7.27-6.04,2.83-6.04,7.27,2.57,7.16,6.04,7.16Zm30.9,20.1v4.49h-33.25v-15.98h5.56v11.49h27.69Zm-1.34-6.84h-5.24v-36.03h5.24v36.03Z"/></svg>